<svg xmlns="http://www.w3.org/2000/svg" width="1600" height="1000" viewBox="0 0 1600 1000" role="img" aria-labelledby="title desc">
  <title id="title">Prototipo B — N Ruta Clara para Nutrity Global</title>
  <desc id="desc">Lámina conceptual con un isotipo N, pasos internos y un nodo amarillo de llegada junto al wordmark Nutrity Global.</desc>
  <defs>
    <filter id="shadow" x="-20%" y="-20%" width="140%" height="140%">
      <feDropShadow dx="0" dy="12" stdDeviation="18" flood-color="#17324D" flood-opacity="0.14"/>
    </filter>
    <g id="routeN">
      <path d="M22 288V22h58l138 174V22h64v266h-58L86 115v173Z" fill="#88B831"/>
      <circle cx="101" cy="183" r="11" fill="#FBF8F1"/>
      <circle cx="137" cy="139" r="11" fill="#FBF8F1"/>
      <circle cx="173" cy="94" r="11" fill="#FBF8F1"/>
      <circle cx="211" cy="49" r="16" fill="#FFCC00"/>
    </g>
  </defs>
  <rect width="1600" height="1000" fill="#FBF8F1"/>
  <text x="110" y="105" fill="#17324D" font-family="Arial, sans-serif" font-size="28" font-weight="700" letter-spacing="4">NUTRITY GLOBAL · PROTOTIPO B</text>
  <text x="110" y="165" fill="#17324D" font-family="Arial, sans-serif" font-size="52" font-weight="700">N Ruta Clara</text>
  <text x="110" y="211" fill="#3A6447" font-family="Arial, sans-serif" font-size="24">Un sistema compacto para aplicación, comunidad y progreso</text>

  <rect x="110" y="270" width="1380" height="400" rx="32" fill="#FFFFFF" filter="url(#shadow)"/>
  <g transform="translate(205 320) scale(1.05)"><use href="#routeN"/></g>
  <g transform="translate(565 365)">
    <text x="0" y="128" fill="#88B831" font-family="Trebuchet MS, Arial, sans-serif" font-size="168" font-weight="700" letter-spacing="-11"><tspan>Nutrit</tspan><tspan fill="#FFCC00">y</tspan></text>
    <text x="365" y="190" text-anchor="middle" fill="#3A6447" font-family="Arial, sans-serif" font-size="48" font-weight="700" letter-spacing="13">GLOBAL</text>
    <text x="365" y="245" text-anchor="middle" fill="#17324D" font-family="Arial, sans-serif" font-size="25">Tu próximo paso, claro y posible.</text>
  </g>

  <g transform="translate(110 735)">
    <rect width="330" height="170" rx="28" fill="#FFFFFF"/>
    <g transform="translate(33 27) scale(.40)"><use href="#routeN"/></g>
    <text x="173" y="58" fill="#17324D" font-family="Arial, sans-serif" font-size="22" font-weight="700">Aplicación</text>
    <text x="173" y="92" fill="#3A6447" font-family="Arial, sans-serif" font-size="18">Símbolo reconocible</text>
    <text x="173" y="119" fill="#3A6447" font-family="Arial, sans-serif" font-size="18">sin texto pequeño.</text>
  </g>
  <g transform="translate(480 735)">
    <rect width="330" height="170" rx="28" fill="#17324D"/>
    <g transform="translate(33 27) scale(.40)"><use href="#routeN"/></g>
    <text x="173" y="58" fill="#FFFFFF" font-family="Arial, sans-serif" font-size="22" font-weight="700">Fondo oscuro</text>
    <text x="173" y="92" fill="#E7EFE8" font-family="Arial, sans-serif" font-size="18">Requiere variante</text>
    <text x="173" y="119" fill="#E7EFE8" font-family="Arial, sans-serif" font-size="18">negativa ajustada.</text>
  </g>
  <g transform="translate(850 735)">
    <rect width="270" height="170" rx="28" fill="#FFFFFF"/>
    <circle cx="72" cy="69" r="43" fill="#88B831"/>
    <circle cx="72" cy="69" r="14" fill="#FFCC00"/>
    <text x="137" y="58" fill="#17324D" font-family="Arial, sans-serif" font-size="22" font-weight="700">Hito</text>
    <text x="137" y="90" fill="#3A6447" font-family="Arial, sans-serif" font-size="18">El amarillo</text>
    <text x="137" y="117" fill="#3A6447" font-family="Arial, sans-serif" font-size="18">marca llegada.</text>
  </g>
  <g transform="translate(1160 735)">
    <rect width="330" height="170" rx="28" fill="#FFFFFF"/>
    <path d="M38 105h214" stroke="#D7E1DA" stroke-width="10" stroke-linecap="round"/>
    <circle cx="55" cy="105" r="14" fill="#88B831"/>
    <circle cx="137" cy="105" r="14" fill="#88B831"/>
    <circle cx="219" cy="105" r="18" fill="#FFCC00"/>
    <text x="38" y="52" fill="#17324D" font-family="Arial, sans-serif" font-size="22" font-weight="700">Progreso</text>
    <text x="38" y="145" fill="#3A6447" font-family="Arial, sans-serif" font-size="17">Origen · paso · llegada</text>
  </g>
  <text x="110" y="963" fill="#6A786F" font-family="Arial, sans-serif" font-size="18">BOCETO VECTORIAL CONCEPTUAL · REQUIERE REFINAMIENTO ÓPTICO Y PRUEBAS A 16–160 PX</text>
</svg>
